<mxfile host="app.diagrams.net" modified="2020-10-28T11:54:12.342Z" agent="5.0 (Windows NT 10.0; Win64; x64) AppleWebKit/537.36 (KHTML, like Gecko) Chrome/86.0.4240.111 Safari/537.36" etag="tQNhI8drJTKWLV2jwhis" version="13.8.0" type="github" pages="2">
  <diagram id="a8DZd4pTrANNuwWvUfZb" name="Page-1">
    <mxGraphModel dx="744" dy="393" grid="1" gridSize="10" guides="1" tooltips="1" connect="1" arrows="1" fold="1" page="1" pageScale="1" pageWidth="850" pageHeight="1100" math="0" shadow="0">
      <root>
        <mxCell id="0" />
        <mxCell id="1" parent="0" />
        <mxCell id="fcoQ4BzhZd5VfGcqPhMv-1" value="Question#1&lt;br&gt;Expanded question" style="rounded=0;whiteSpace=wrap;html=1;fillColor=#ffe6cc;strokeColor=#d79b00;" vertex="1" parent="1">
          <mxGeometry x="380" y="80" width="120" height="290" as="geometry" />
        </mxCell>
        <mxCell id="fcoQ4BzhZd5VfGcqPhMv-2" value="" style="whiteSpace=wrap;html=1;aspect=fixed;" vertex="1" parent="1">
          <mxGeometry x="500" y="80" width="290" height="290" as="geometry" />
        </mxCell>
        <mxCell id="fcoQ4BzhZd5VfGcqPhMv-3" value="" style="triangle;whiteSpace=wrap;html=1;" vertex="1" parent="1">
          <mxGeometry x="460" y="320" width="30" height="40" as="geometry" />
        </mxCell>
        <mxCell id="fcoQ4BzhZd5VfGcqPhMv-4" value="" style="triangle;whiteSpace=wrap;html=1;rotation=-180;" vertex="1" parent="1">
          <mxGeometry x="390" y="320" width="30" height="40" as="geometry" />
        </mxCell>
        <mxCell id="fcoQ4BzhZd5VfGcqPhMv-5" value="Timer" style="rounded=0;whiteSpace=wrap;html=1;fillColor=#dae8fc;strokeColor=#6c8ebf;" vertex="1" parent="1">
          <mxGeometry x="500" y="80" width="80" height="30" as="geometry" />
        </mxCell>
        <mxCell id="fcoQ4BzhZd5VfGcqPhMv-6" value="SSH Terminal to VM" style="rounded=1;whiteSpace=wrap;html=1;fillColor=#fff2cc;strokeColor=#d6b656;" vertex="1" parent="1">
          <mxGeometry x="510" y="110" width="250" height="260" as="geometry" />
        </mxCell>
        <mxCell id="fcoQ4BzhZd5VfGcqPhMv-7" value="" style="rounded=0;whiteSpace=wrap;html=1;" vertex="1" parent="1">
          <mxGeometry x="60" y="80" width="220" height="290" as="geometry" />
        </mxCell>
        <mxCell id="fcoQ4BzhZd5VfGcqPhMv-8" value="Authentication with&amp;nbsp;&lt;br&gt;Google&lt;br&gt;Github&lt;br&gt;Linked in" style="text;html=1;strokeColor=none;fillColor=none;align=center;verticalAlign=middle;whiteSpace=wrap;rounded=0;" vertex="1" parent="1">
          <mxGeometry x="120" y="120" width="110" height="90" as="geometry" />
        </mxCell>
        <mxCell id="GixdcXiz6Bqy9y5Bf0-A-1" value="Page#1" style="text;html=1;strokeColor=#6c8ebf;fillColor=#dae8fc;align=center;verticalAlign=middle;whiteSpace=wrap;rounded=0;fontStyle=1" vertex="1" parent="1">
          <mxGeometry x="150" y="60" width="40" height="20" as="geometry" />
        </mxCell>
        <mxCell id="GixdcXiz6Bqy9y5Bf0-A-2" value="Page#2" style="text;html=1;strokeColor=#6c8ebf;fillColor=#dae8fc;align=center;verticalAlign=middle;whiteSpace=wrap;rounded=0;fontStyle=1" vertex="1" parent="1">
          <mxGeometry x="580" y="60" width="40" height="20" as="geometry" />
        </mxCell>
      </root>
    </mxGraphModel>
  </diagram>
  <diagram id="Bl0revCOdk7Jhsu2Hz7r" name="Page-2">
    <mxGraphModel dx="744" dy="393" grid="1" gridSize="10" guides="1" tooltips="1" connect="1" arrows="1" fold="1" page="1" pageScale="1" pageWidth="850" pageHeight="1100" math="0" shadow="0">
      <root>
        <mxCell id="XBmFHnOPGoCKAQ6FAXSj-0" />
        <mxCell id="XBmFHnOPGoCKAQ6FAXSj-1" parent="XBmFHnOPGoCKAQ6FAXSj-0" />
      </root>
    </mxGraphModel>
  </diagram>
</mxfile>
